<svg xmlns="http://www.w3.org/2000/svg" width="21" height="21" viewBox="0 0 21 21" fill="none">
  <path d="M1.51661 7.02395C1.51661 7.02395 5.6026 3.53171 8.00056 1.15784C10.4496 0.539095 17.387 2.76848 18.7741 4.61883C18.8089 4.66552 18.8143 4.72251 18.7637 4.72876L1.55307 7.13241C1.49791 7.13939 1.46934 7.05447 1.51661 7.02395Z" fill="#62CAC0"/>
  <path d="M18.6926 5.6143L1.7338 7.79884C1.60837 7.81317 1.51599 8.17824 1.51599 8.31758V11.3642C1.51599 11.5459 1.66762 11.6922 1.83171 11.672L7.54961 10.8392C8.22655 9.33154 9.55835 8.21022 11.0888 8.04074C12.5652 7.87787 13.8572 8.64294 14.5546 9.91683L18.7891 9.31646C18.9147 9.30065 19.0044 9.18926 19.0044 9.05139V6.17422C19.0044 5.99407 18.8555 5.59555 18.6926 5.6143Z" fill="#E6C04F"/>
  <path d="M19.0046 8.61519C19.0046 8.83835 18.7024 8.85085 18.7013 8.85085C18.4401 8.89533 14.6452 9.40268 14.6452 9.40268C14.615 9.40709 14.5852 9.40893 14.5544 9.40893C14.3652 9.40893 14.1815 9.33209 14.0447 9.19018C14.0437 9.18908 14.0426 9.18797 14.0415 9.18687C14.0376 9.18283 14.0322 9.17842 14.0282 9.17327C13.945 9.08063 13.8578 8.99313 13.767 8.91004C13.7365 8.88247 13.7056 8.85526 13.6747 8.82879C13.5915 8.7582 13.5061 8.69202 13.4178 8.62989C13.3725 8.59828 13.328 8.56887 13.2821 8.53909C13.2595 8.52438 13.2369 8.51078 13.2132 8.49718C13.1906 8.48247 13.1669 8.4696 13.1432 8.456C13.103 8.43284 13.061 8.40968 13.0187 8.38872C12.9645 8.36041 12.9089 8.33394 12.8532 8.30857C12.8285 8.29717 12.8041 8.28651 12.7793 8.27696C12.7556 8.26666 12.7309 8.2571 12.7054 8.24754C12.6695 8.23284 12.6343 8.22034 12.5973 8.20747C12.5891 8.20453 12.5798 8.20122 12.5715 8.19828C12.5593 8.19387 12.5471 8.18982 12.5345 8.18541C12.4997 8.17401 12.4638 8.16336 12.4287 8.1527C12.4122 8.14755 12.396 8.14351 12.3784 8.13799C12.3691 8.13615 12.359 8.13284 12.3497 8.13064C12.3138 8.12108 12.2765 8.11189 12.2395 8.10343H12.2385C12.1347 8.07917 12.0267 8.06115 11.919 8.04645C11.9169 8.04534 11.9158 8.04534 11.9137 8.04534H11.9108C11.8839 8.0424 11.8562 8.03799 11.8286 8.03578C11.8017 8.03284 11.7741 8.03064 11.7461 8.02843C11.7173 8.02659 11.6897 8.02438 11.661 8.02328C11.516 8.01483 11.3689 8.01703 11.2199 8.02843C11.1912 8.03064 11.1625 8.03284 11.1327 8.03578C11.118 8.03689 11.1026 8.03799 11.0882 8.04019C11.0419 8.04534 10.9967 8.05085 10.9508 8.05821C10.9116 8.06446 10.8725 8.07071 10.8334 8.07806C10.8026 8.08321 10.7717 8.08946 10.7419 8.09608C10.7039 8.10343 10.6659 8.11188 10.6278 8.12107C10.5518 8.13909 10.4767 8.15931 10.4027 8.18247C10.375 8.19056 10.3472 8.20012 10.3195 8.20968C10.305 8.21483 10.2896 8.21924 10.2742 8.22439C10.2598 8.22953 10.2454 8.23394 10.23 8.24019C10.227 8.24129 10.2228 8.2424 10.2197 8.24461C10.1858 8.256 10.1519 8.2685 10.118 8.28247C10.0779 8.29718 10.0388 8.31409 9.99977 8.33063C9.99464 8.33284 9.99052 8.33504 9.98538 8.33725C9.94117 8.356 9.89799 8.37622 9.85482 8.39607C9.81165 8.41703 9.76847 8.43835 9.72633 8.46041C9.69242 8.47806 9.65851 8.49607 9.62456 8.51519C9.60403 8.52659 9.5845 8.53725 9.56394 8.54975C9.52076 8.57512 9.47759 8.60048 9.43542 8.62769C9.40151 8.64864 9.36759 8.66997 9.33367 8.69313C9.31106 8.70673 9.28846 8.72254 9.26685 8.73835C9.2432 8.75416 9.22059 8.76997 9.19697 8.78688C9.18154 8.79717 9.16715 8.80894 9.15172 8.82033C9.11676 8.8457 9.08285 8.87217 9.04893 8.89827C9.02119 8.91923 8.99341 8.94165 8.96567 8.96481C8.93484 8.98981 8.90401 9.01518 8.87419 9.04165C8.86493 9.04901 8.85567 9.05636 8.84745 9.06482C8.82279 9.08577 8.79914 9.10673 8.77549 9.12879C8.73232 9.16886 8.68915 9.20893 8.64701 9.25121C8.61823 9.27842 8.59049 9.30709 8.56271 9.3354C8.52879 9.37106 8.49488 9.40709 8.46096 9.44386C8.42909 9.47841 8.39826 9.51334 8.36639 9.549C8.36331 9.55452 8.35918 9.55856 8.35509 9.56297C8.32526 9.59864 8.29544 9.6343 8.26565 9.67143C8.23892 9.70268 8.21322 9.7354 8.18752 9.76922C8.15156 9.81554 8.11661 9.86297 8.08266 9.9104C8.05082 9.95341 8.01996 9.99753 7.99017 10.0431C7.88326 10.203 7.71469 10.3075 7.52451 10.3313L7.27473 10.3641L7.07016 10.3916C7.07016 10.3916 2.62025 11.0508 1.70228 11.1707C1.60567 11.1835 1.51623 11.1001 1.51623 10.999V8.31703C1.51623 8.30122 1.51727 8.28651 1.51932 8.27181C1.53475 8.1685 1.60258 8.08542 1.69406 8.05895C1.70127 8.05895 2.02402 8.01483 2.03124 8.01483C2.08776 8.01924 10.6669 6.82403 10.6669 6.82403L18.6931 5.86558C18.7085 5.86374 18.724 5.86375 18.7401 5.86448C18.8668 5.87515 18.9755 5.98139 19.0003 6.11852C19.0003 6.12477 19.0014 6.13102 19.0025 6.13727C19.0035 6.14352 19.0035 6.15014 19.0035 6.15639C19.0046 6.16154 19.0046 6.16779 19.0046 6.1733V8.61519ZM18.0392 4.43987C18.139 4.52626 18.1009 4.68619 17.9775 4.70089C15.9792 4.93582 4.8529 6.46595 2.36533 6.75859C2.22141 6.7755 2.13198 6.5858 2.23889 6.49205C3.28222 5.5825 6.05766 3.3362 7.84626 1.6535C7.98195 1.52519 8.15874 1.44835 8.34687 1.43879C11.6362 1.27666 15.3719 2.12739 18.0392 4.43987ZM7.7373 0.506084L7.66638 0.529982L7.60056 0.566006C5.0729 2.72664 1.69201 5.41486 1.00535 6.06264C0.976568 6.08985 0.940606 6.11007 0.910783 6.13617C0.572601 6.44279 0.126465 6.81226 0.126465 8.22953V18.9368C0.126465 20.2445 0.697998 20.6551 2.0405 20.5235L18.9974 18.1699C19.6377 18.089 20.1075 17.5107 20.1075 16.7949V6.09315C20.1075 3.50385 15.3945 0.329985 7.7373 0.506084Z" fill="#100F0D"/>
  <path d="M14.1123 10.8243C14.2433 11.2074 14.3097 11.6232 14.3097 12.0607C14.3097 14.1563 12.7571 16.0967 10.9196 16.2974C10.7456 16.3165 10.5722 16.3195 10.4044 16.3066C8.95255 16.1941 7.93854 14.9191 7.93854 13.2059C7.93854 12.7949 7.99682 12.3853 8.11178 11.989L8.21058 11.6482L8.34635 11.3478C8.94821 10.0162 10.0916 9.10486 11.3305 8.9692C11.5039 8.95045 11.6768 8.94714 11.8444 8.96037C12.7054 9.02692 13.4512 9.52177 13.8901 10.3181L14.0193 10.553L14.1123 10.8243Z" fill="white"/>
  <path d="M13.7457 11.0697C13.858 11.4006 13.9151 11.7601 13.9151 12.1384C13.9151 13.9494 12.5839 15.627 11.0084 15.8016C10.8591 15.8182 10.7105 15.8208 10.5665 15.8097C9.32177 15.7134 8.45239 14.6119 8.45239 13.1311C8.45239 12.7759 8.50235 12.4223 8.6009 12.0796L8.68563 11.7851L8.80202 11.5252C9.31803 10.3741 10.2984 9.58589 11.3605 9.46788C11.5091 9.45133 11.6576 9.44876 11.8012 9.45979C12.5394 9.51714 13.179 9.94434 13.5551 10.6322L13.666 10.8351L13.7457 11.0697Z" fill="#100F0D"/>
  <path d="M18.1277 6.98216C18.1647 7.06562 18.1866 7.15753 18.193 7.25569C18.2243 7.7248 17.8855 8.18509 17.453 8.26083C17.4121 8.26781 17.3712 8.27148 17.331 8.27148C16.9854 8.27038 16.7263 8.002 16.7008 7.61819C16.6947 7.52627 16.7022 7.43363 16.7237 7.34319L16.742 7.26525L16.7697 7.1954C16.8924 6.88731 17.1497 6.66415 17.4412 6.61305C17.4821 6.60606 17.523 6.60238 17.5628 6.60238C17.7678 6.60312 17.9519 6.70128 18.0678 6.87224L18.1019 6.92297L18.1277 6.98216Z" fill="#100F0D"/>
  <path d="M13.674 10.5864C13.7213 10.6941 13.7497 10.8129 13.7583 10.9394C13.7985 11.5449 13.3614 12.1386 12.8033 12.2364C12.7505 12.2456 12.6974 12.25 12.6461 12.25C12.2 12.2489 11.8655 11.9026 11.8325 11.4074C11.8246 11.2886 11.8347 11.1691 11.8619 11.0522L11.8856 10.9515L11.9215 10.8618C12.0798 10.4644 12.4118 10.1765 12.7879 10.1103C12.8406 10.1011 12.8934 10.0967 12.9451 10.0967C13.2096 10.0974 13.4468 10.2243 13.5965 10.4449L13.6406 10.5099L13.674 10.5864Z" fill="white"/>
  <path d="M18.7891 16.9781L2.05185 19.3027C2.03462 19.3049 2.01754 19.3053 2.00074 19.3038C1.85762 19.2928 1.73613 19.1575 1.73613 18.9965L1.51599 12.8234C1.60212 12.8487 1.69099 12.8656 1.78204 12.8726C1.86555 12.8792 1.94967 12.8774 2.03204 12.8671L2.03599 12.8667L2.0399 12.866L7.15849 12.1123C7.10308 12.4197 7.07121 12.734 7.07121 13.0539C7.07121 15.3222 8.52478 17.0443 10.4297 17.1913C10.6441 17.2082 10.8641 17.2046 11.0888 17.1799C13.3071 16.9347 15.1047 14.691 15.1047 12.1675C15.1047 11.7884 15.0631 11.4248 14.9867 11.0815L18.9973 10.5105C18.9998 10.5101 19.0019 10.5098 19.0044 10.5094V16.7112C19.0044 16.8509 18.9147 16.9623 18.7891 16.9781Z" fill="#100F0D"/>
  <path d="M19.0044 10.3632V16.7113C19.0044 16.8506 18.9147 16.962 18.7891 16.9779L1.83171 19.3319C1.66762 19.3536 1.51599 19.2054 1.51599 19.0256V12.6536C1.51599 12.5158 1.60697 12.4044 1.73107 12.3886L7.278 11.586C7.14292 12.0551 7.07121 12.5485 7.07121 13.0536C7.07121 15.5771 8.8704 17.4249 11.0888 17.1797C13.3071 16.9345 15.1047 14.6907 15.1047 12.1672C15.1047 11.6051 15.0154 11.0768 14.8524 10.5981L18.6901 10.0555C18.8526 10.0353 19.0044 10.1816 19.0044 10.3632Z" fill="#E85945"/>
  <path d="M7.77857 13.0255C7.69778 10.6921 10.1111 8.80753 11.9998 8.24504C11.5659 8.05644 10.9626 8.00717 10.7074 8.01195C8.50607 8.05129 6.61584 10.3388 6.70258 12.8446C6.78053 15.0975 8.11442 16.8773 10.3177 17.1641C9.12609 16.2939 7.83785 14.7387 7.77857 13.0255Z" fill="#100F0D"/>
</svg>